<?xml version="1.0" encoding="iso-8859-1"?>
<!-- Generator: Adobe Illustrator 19.0.0, SVG Export Plug-In . SVG Version: 6.00 Build 0)  -->
<svg version="1.1" id="Layer_1" xmlns="http://www.w3.org/2000/svg" xmlns:xlink="http://www.w3.org/1999/xlink" x="0px" y="0px"
	 viewBox="0 0 512 512" style="enable-background:new 0 0 512 512;" xml:space="preserve">
<circle style="fill:#4C5870;" cx="378.54" cy="164.771" r="75.223"/>
<path style="fill:#A2A9AF;" d="M378.54,276.386c-73.707,0-133.46,59.752-133.46,133.46H512
	C512,336.138,452.248,276.386,378.54,276.386z"/>
<path style="fill:#181818;" d="M378.54,264.253c-6.701,0-12.133,5.432-12.133,12.133v36.871l12.133,12.133l12.133-12.133v-36.871
	C390.673,269.685,385.241,264.253,378.54,264.253z"/>
<path style="fill:#3D3D3B;" d="M366.408,313.257v97.062c0,6.701,5.432,12.133,12.133,12.133c6.701,0,12.133-5.432,12.133-12.133
	v-97.062H366.408z"/>
<circle style="fill:#269AF2;" cx="133.46" cy="164.771" r="75.223"/>
<path style="fill:#BEC8D6;" d="M133.46,276.386C59.752,276.386,0,336.138,0,409.846h266.919
	C266.919,336.138,207.167,276.386,133.46,276.386z"/>
<path style="fill:#181818;" d="M133.46,264.253c-6.701,0-12.133,5.432-12.133,12.133v36.871l12.133,12.133l12.133-12.133v-36.871
	C145.592,269.685,140.161,264.253,133.46,264.253z"/>
<path style="fill:#4C5870;" d="M121.327,313.257v97.062c0,6.701,5.432,12.133,12.133,12.133c6.701,0,12.133-5.432,12.133-12.133
	v-97.062H121.327z"/>
<g>
</g>
<g>
</g>
<g>
</g>
<g>
</g>
<g>
</g>
<g>
</g>
<g>
</g>
<g>
</g>
<g>
</g>
<g>
</g>
<g>
</g>
<g>
</g>
<g>
</g>
<g>
</g>
<g>
</g>
</svg>
